<?xml version="1.0" encoding="UTF-8"?>
<svg width="583px" height="96px" viewBox="0 0 583 96" version="1.1" xmlns="http://www.w3.org/2000/svg" xmlns:xlink="http://www.w3.org/1999/xlink">
    <!-- Generator: Sketch 54.1 (76490) - https://sketchapp.com -->
    <title>Untitled</title>
    <desc>Created with Sketch.</desc>
    <g id="Page-1" stroke="none" stroke-width="1" fill="none" fill-rule="evenodd">
        <g id="logo" fill-rule="nonzero">
            <g id="g10" transform="translate(291.500000, 48.366700) scale(-1, 1) rotate(-180.000000) translate(-291.500000, -48.366700) translate(0.000000, 0.866700)">
                <g id="g12">
                    <path d="M37.9592384,23.3530083 C37.0916406,23.2750085 36.4603088,23.5900744 35.9868434,24.2994059 L4.97186757,67.8634303 L4.97186757,25.7994022 C4.97186757,24.4583389 3.7874972,23.3530083 2.44635388,23.3530083 C1.10469057,23.3530083 0,24.4583389 0,25.7994022 L0,74.7290132 C0,75.9919434 1.02603743,77.2550069 2.52551369,77.2550069 C3.39321818,77.2550069 4.10362974,76.781008 4.49790876,76.2290094 C4.49790876,76.2290094 29.752059,40.0832331 35.4343114,32.7447181 L35.4343114,74.7290132 C35.4343114,76.0700765 36.5389753,77.2550069 37.880572,77.2550069 C39.2228353,77.2550069 40.4061657,76.0700765 40.4061657,74.7290132 L40.4061657,25.7994022 C40.4061657,24.4583389 39.3015017,23.4322081 37.9592384,23.3530083" id="path14" fill="#231F20"></path>
                    <path d="M62.3602441,23.3530083 C60.939981,23.3530083 59.7566506,24.5363387 59.7566506,25.9572684 L59.7566506,74.64928 C59.7566506,76.0700765 60.939981,77.2550069 62.3602441,77.2550069 C63.7810405,77.2550069 64.8858378,76.0700765 64.8858378,74.64928 L64.8858378,25.9572684 C64.8858378,24.5363387 63.7810405,23.3530083 62.3602441,23.3530083" id="path16" fill="#231F20"></path>
                    <path d="M122.069428,23.3530083 C121.20183,23.2750085 120.569965,23.5900744 120.096633,24.2994059 L89.0815106,67.8634303 L89.0815106,25.7994022 C89.0815106,24.4583389 87.8976469,23.3530083 86.5565836,23.3530083 C85.2143203,23.3530083 84.1096564,24.4583389 84.1096564,25.7994022 L84.1096564,74.7290132 C84.1096564,75.9919434 85.1357872,77.2550069 86.6352501,77.2550069 C87.5028479,77.2550069 88.2133795,76.781008 88.6081785,76.2290094 C88.6081785,76.2290094 113.861715,40.0832331 119.543968,32.7447181 L119.543968,74.7290132 C119.543968,76.0700765 120.648632,77.2550069 121.990895,77.2550069 C123.332492,77.2550069 124.515822,76.0700765 124.515822,74.7290132 L124.515822,25.7994022 C124.515822,24.4583389 123.411158,23.4322081 122.069428,23.3530083" id="path18" fill="#231F20"></path>
                    <path d="M155.080946,22.9583426 C145.847635,22.9583426 138.58632,28.7196615 136.928991,37.4791063 C136.850325,37.7957722 136.771658,38.1103047 136.771658,38.4269706 C136.692992,39.8463004 137.639656,40.952031 139.059652,41.0310974 C140.402316,41.1092306 141.427646,40.3201659 141.664979,39.0572357 C142.848976,32.1916529 148.13563,27.6144643 155.080946,27.6144643 C163.287592,27.6144643 168.338246,33.1395172 168.338246,43.5561578 L168.338246,74.64928 C168.338246,76.0700765 169.523576,77.2550069 170.943573,77.2550069 C172.363569,77.2550069 173.4689,76.0700765 173.4689,74.64928 L173.4689,43.6353576 C173.4689,32.1135197 167.550248,22.9583426 155.080946,22.9583426" id="path20" fill="#231F20"></path>
                    <path d="M302.079245,51.447738 L282.349961,51.447738 L282.349961,71.8878203 L302.079245,71.8878203 C308.235229,71.8878203 311.94322,67.0743656 311.94322,61.6290459 C311.94322,56.1837262 308.235229,51.447738 302.079245,51.447738 L302.079245,51.447738 Z M301.527246,76.5440753 L279.745967,76.5440753 C278.324638,76.5440753 277.22064,75.4399447 277.22064,74.0195483 L277.22064,25.8791353 C277.22064,24.4583389 278.324638,23.3530083 279.745967,23.3530083 C281.165964,23.3530083 282.349961,24.4583389 282.349961,25.8791353 L282.349961,46.7134832 L301.605913,46.7134832 C311.628554,46.7134832 317.15254,53.6577325 317.15254,61.6290459 C317.15254,69.5987593 311.549888,76.5440753 301.527246,76.5440753 L301.527246,76.5440753 Z" id="path22" fill="#231F20"></path>
                    <path d="M387.361698,51.9217369 L387.361698,71.8878203 L407.80298,71.8878203 C413.562966,71.8878203 417.666956,67.7055641 417.666956,61.8654453 C417.666956,56.0258599 413.562966,51.9217369 407.80298,51.9217369 L387.361698,51.9217369 Z M411.905637,48.2124128 C418.61362,49.475343 422.876276,55.0779956 422.876276,61.9435785 C422.876276,71.0195558 416.246959,76.5440753 407.249649,76.5440753 L384.679038,76.5440753 C383.259042,76.5440753 382.153711,75.4399447 382.153711,74.0195483 L382.153711,25.8791353 C382.153711,24.4583389 383.259042,23.3530083 384.679038,23.3530083 C386.100368,23.3530083 387.361698,24.4583389 387.361698,25.8791353 L387.361698,47.5025479 L406.69765,47.5025479 C406.69765,47.5025479 406.69765,47.4233481 417.746956,24.7734047 C418.220288,23.9046069 419.086952,23.3530083 420.03495,23.3530083 C420.350949,23.3530083 420.745615,23.4322081 421.060281,23.5900744 C421.928279,23.98434 422.402944,24.9311377 422.402944,25.7994022 C422.402944,26.1936678 422.322944,26.5103337 422.165611,26.9045994 C412.221636,47.4233481 411.905637,48.2124128 411.905637,48.2124128 L411.905637,48.2124128 Z" id="path24" fill="#231F20"></path>
                    <path d="M507.485398,28.6405951 L496.278759,28.6405951 L496.278759,71.8878203 L507.485398,71.8878203 C520.901364,71.8878203 528.241346,61.9435785 528.241346,50.2644077 C528.241346,38.5848369 520.901364,28.6405951 507.485398,28.6405951 Z M507.95873,76.5440753 L493.674766,76.5440753 C492.253436,76.5440753 491.070772,75.4399447 491.070772,74.0195483 L491.070772,26.5884669 C491.070772,25.1682037 492.253436,23.98434 493.674766,23.98434 L507.95873,23.98434 C523.742691,23.98434 533.449333,36.1379097 533.449333,50.2644077 C533.449333,64.3905057 523.742691,76.5440753 507.95873,76.5440753 L507.95873,76.5440753 Z" id="path26" fill="#231F20"></path>
                    <path d="M579.793217,23.98434 L548.303963,23.98434 C546.883966,23.98434 545.699969,25.1682037 545.699969,26.5884669 L545.699969,74.0195483 C545.699969,75.4399447 546.883966,76.5440753 548.303963,76.5440753 L578.60922,76.5440753 C579.95055,76.5440753 581.055881,75.5180779 581.055881,74.1768812 C581.055881,72.8347512 579.95055,71.8096871 578.60922,71.8096871 L550.830623,71.8096871 L550.830623,53.736799 L566.534584,53.736799 C567.875914,53.736799 568.902578,52.7108016 568.902578,51.3686716 C568.902578,50.0269416 567.875914,49.0014775 566.534584,49.0014775 L550.830623,49.0014775 L550.830623,28.7196615 L579.793217,28.7196615 C581.134547,28.7196615 582.161211,27.6936641 582.161211,26.3515341 C582.161211,25.0103375 581.134547,23.98434 579.793217,23.98434" id="path28" fill="#231F20"></path>
                    <path d="M370.224408,26.8253996 L347.969797,75.7550106 C347.733797,76.2290094 346.943133,77.2550069 345.760469,77.2550069 C344.576472,77.2550069 343.708474,76.3071426 343.471141,75.7550106 L321.21653,26.8253996 C321.059197,26.5103337 321.059197,26.114468 321.059197,25.7994022 C321.059197,24.8530083 321.611196,23.98434 322.479194,23.5900744 C322.795193,23.4322081 323.189859,23.3530083 323.504525,23.3530083 C324.452522,23.3530083 325.32052,23.98434 325.715186,24.8530045 L332.265836,39.3739016 L332.253836,39.3739016 L334.316498,43.8722903 L345.760469,69.1258272 L357.124441,43.8722903 L359.176435,39.3739016 L365.805752,24.7734047 C366.200418,23.8264738 367.068416,23.3530083 368.01508,23.3530083 C368.331079,23.3530083 368.645745,23.4322081 368.961744,23.5900744 C369.831075,23.98434 370.383074,24.8530045 370.383074,25.7994022 C370.383074,26.114468 370.383074,26.5103337 370.224408,26.8253996" id="path30" fill="#231F20"></path>
                    <path d="M481.853462,26.8253996 L459.597518,75.7550106 C459.361518,76.2290094 458.572187,77.2550069 457.38819,77.2550069 C456.204193,77.2550069 455.336195,76.3071426 455.100196,75.7550106 L432.844251,26.8253996 C432.686918,26.5103337 432.686918,26.114468 432.686918,25.7994022 C432.686918,24.8530083 433.238917,23.98434 434.108248,23.5900744 C434.422914,23.4322081 434.81758,23.3530083 435.133579,23.3530083 C436.080243,23.3530083 436.948241,23.98434 437.342907,24.8530045 L443.893557,39.3739016 L443.881557,39.3739016 L445.944218,43.8722903 L457.38819,69.1258272 L468.752161,43.8722903 L470.804156,39.3739016 L477.433473,24.7734047 C477.828139,23.8264738 478.696137,23.3530083 479.642801,23.3530083 C479.9588,23.3530083 480.274799,23.4322081 480.589465,23.5900744 C481.458796,23.98434 482.010795,24.8530045 482.010795,25.7994022 C482.010795,26.114468 482.010795,26.5103337 481.853462,26.8253996" id="path32" fill="#231F20"></path>
                    <path d="M233.004751,26.8253996 L210.75014,75.7550106 C210.51414,76.2290094 209.723476,77.2550069 208.540812,77.2550069 C207.356815,77.2550069 206.488817,76.3071426 206.251484,75.7550106 L183.996873,26.8253996 C183.83954,26.5103337 183.83954,26.114468 183.83954,25.7994022 C183.83954,24.8530083 184.391539,23.98434 185.259537,23.5900744 C185.575536,23.4322081 185.970202,23.3530083 186.284868,23.3530083 C187.232865,23.3530083 188.100863,23.98434 188.495529,24.8530045 L195.046179,39.3739016 L195.034179,39.3739016 L197.096841,43.8722903 L208.540812,69.1258272 L219.904784,43.8722903 L221.956778,39.3739016 L228.586095,24.7734047 C228.980761,23.8264738 229.848759,23.3530083 230.795423,23.3530083 C231.111422,23.3530083 231.426088,23.4322081 231.742087,23.5900744 C232.610085,23.98434 233.163417,24.8530045 233.163417,25.7994022 C233.163417,26.114468 233.163417,26.5103337 233.004751,26.8253996" id="path34" fill="#231F20"></path>
                    <path d="M271.869987,91.2096386 L242.839393,1.82811543 C242.496727,0.686451617 241.580729,0 240.438066,0 C240.0954,0 239.752734,0 239.408735,0.11458638 C238.267404,0.45729219 237.466073,1.600516 237.466073,2.74321981 C237.466073,2.97135257 237.466073,3.200512 237.580739,3.54269781 L266.612667,92.924301 C266.955333,94.0674982 268.212663,94.8669628 269.355327,94.8669628 C269.584659,94.8669628 269.927325,94.8669628 270.156658,94.7538964 C271.297988,94.410164 271.984653,93.2669668 271.984653,92.1248364 C271.984653,91.7809705 271.984653,91.5533711 271.869987,91.2096386" id="path36" fill="#A81C27"></path>
                </g>
            </g>
        </g>
    </g>
</svg>