<svg id="Layer_1" data-name="Layer 1" xmlns="http://www.w3.org/2000/svg" viewBox="0 0 93.3 71.15"><defs><style>.cls-1{fill:#231f20;}.cls-2{fill:#a81f27;}</style></defs><path class="cls-1" d="M378.24,296.76a1.49,1.49,0,0,1-1.48-.71L353.5,263.37v31.55a1.9,1.9,0,0,1-1.89,1.84,1.85,1.85,0,0,1-1.84-1.84V258.23a1.91,1.91,0,0,1,1.9-1.9,1.86,1.86,0,0,1,1.48.77s18.94,27.11,23.2,32.61V258.23a1.9,1.9,0,0,1,1.83-1.9,2,2,0,0,1,1.9,1.9v36.69A1.89,1.89,0,0,1,378.24,296.76Z" transform="translate(-349.77 -256.33)"/><path class="cls-1" d="M431.35,287.59H415a1.87,1.87,0,0,0-1.89,1.89v36.11a1.87,1.87,0,0,0,1.89,1.89,1.92,1.92,0,0,0,2-1.89V310h14.44c7.52,0,11.66-5.21,11.66-11.19S438.87,287.59,431.35,287.59Zm.42,18.82H417V291.08h14.8c4.61,0,7.39,3.61,7.39,7.69S436.38,306.41,431.77,306.41Z" transform="translate(-349.77 -256.33)"/><path class="cls-2" d="M409.11,259.07l-21.78,67a1.82,1.82,0,0,1-1.8,1.37,2.56,2.56,0,0,1-.77-.08,2.12,2.12,0,0,1-1.45-2,1.8,1.8,0,0,1,.08-.6l21.77-67a2.22,2.22,0,0,1,2.06-1.46,1.39,1.39,0,0,1,.6.09,2,2,0,0,1,1.37,2A2,2,0,0,1,409.11,259.07Z" transform="translate(-349.77 -256.33)"/></svg>